<mxfile host="drawio-plugin" modified="2021-08-17T05:34:24.237Z" agent="5.0 (Windows NT 6.2; Win64; x64) AppleWebKit/537.36 (KHTML, like Gecko) Chrome/89.0.4389.114 Safari/537.36" etag="0h60KgZgvSMJz0KD7IKJ" version="14.7.4" type="embed"><diagram id="d0Sa7kyDIXjJ7xq0b1na" name="Enemy"><mxGraphModel dx="1194" dy="246" grid="1" gridSize="10" guides="1" tooltips="1" connect="1" arrows="1" fold="1" page="1" pageScale="1" pageWidth="827" pageHeight="1169" math="0" shadow="1"><root><mxCell id="0"/><mxCell id="1" parent="0"/><mxCell id="jCtlroWTBGwiwQgUSzyv-3" value="" style="edgeStyle=orthogonalEdgeStyle;rounded=0;orthogonalLoop=1;jettySize=auto;html=1;entryX=0.5;entryY=0;entryDx=0;entryDy=0;entryPerimeter=0;" parent="1" source="jCtlroWTBGwiwQgUSzyv-1" target="jCtlroWTBGwiwQgUSzyv-4" edge="1"><mxGeometry relative="1" as="geometry"><mxPoint x="-280" y="160" as="targetPoint"/></mxGeometry></mxCell><mxCell id="jCtlroWTBGwiwQgUSzyv-1" value="開始&lt;br&gt;Select()" style="strokeWidth=2;html=1;shape=mxgraph.flowchart.start_1;whiteSpace=wrap;" parent="1" vertex="1"><mxGeometry x="-580" y="20" width="100" height="60" as="geometry"/></mxCell><mxCell id="jCtlroWTBGwiwQgUSzyv-7" value="" style="edgeStyle=orthogonalEdgeStyle;rounded=0;orthogonalLoop=1;jettySize=auto;html=1;" parent="1" source="jCtlroWTBGwiwQgUSzyv-4" target="jCtlroWTBGwiwQgUSzyv-6" edge="1"><mxGeometry relative="1" as="geometry"/></mxCell><mxCell id="jCtlroWTBGwiwQgUSzyv-10" value="" style="edgeStyle=orthogonalEdgeStyle;rounded=0;orthogonalLoop=1;jettySize=auto;html=1;" parent="1" source="jCtlroWTBGwiwQgUSzyv-4" target="jCtlroWTBGwiwQgUSzyv-9" edge="1"><mxGeometry relative="1" as="geometry"/></mxCell><mxCell id="jCtlroWTBGwiwQgUSzyv-4" value="攻撃モード？" style="strokeWidth=2;html=1;shape=mxgraph.flowchart.decision;whiteSpace=wrap;" parent="1" vertex="1"><mxGeometry x="-580" y="140" width="100" height="100" as="geometry"/></mxCell><mxCell id="jCtlroWTBGwiwQgUSzyv-51" style="edgeStyle=orthogonalEdgeStyle;rounded=0;orthogonalLoop=1;jettySize=auto;html=1;entryX=0.5;entryY=0;entryDx=0;entryDy=0;entryPerimeter=0;exitX=0.5;exitY=1;exitDx=0;exitDy=0;" parent="1" source="jCtlroWTBGwiwQgUSzyv-52" target="jCtlroWTBGwiwQgUSzyv-48" edge="1"><mxGeometry relative="1" as="geometry"><mxPoint x="-780" y="580" as="sourcePoint"/><Array as="points"><mxPoint x="-760" y="710"/><mxPoint x="-737" y="710"/><mxPoint x="-737" y="730"/></Array></mxGeometry></mxCell><mxCell id="jCtlroWTBGwiwQgUSzyv-53" value="" style="edgeStyle=orthogonalEdgeStyle;rounded=0;orthogonalLoop=1;jettySize=auto;html=1;" parent="1" source="jCtlroWTBGwiwQgUSzyv-6" target="jCtlroWTBGwiwQgUSzyv-52" edge="1"><mxGeometry relative="1" as="geometry"/></mxCell><mxCell id="jCtlroWTBGwiwQgUSzyv-6" value="巡回場所を取得" style="whiteSpace=wrap;html=1;strokeWidth=2;" parent="1" vertex="1"><mxGeometry x="-820" y="250" width="120" height="60" as="geometry"/></mxCell><mxCell id="jCtlroWTBGwiwQgUSzyv-8" value="No" style="text;html=1;align=center;verticalAlign=middle;resizable=0;points=[];autosize=1;strokeColor=none;" parent="1" vertex="1"><mxGeometry x="-660" y="170" width="30" height="20" as="geometry"/></mxCell><mxCell id="jCtlroWTBGwiwQgUSzyv-13" value="" style="edgeStyle=orthogonalEdgeStyle;rounded=0;orthogonalLoop=1;jettySize=auto;html=1;entryX=0.5;entryY=0;entryDx=0;entryDy=0;entryPerimeter=0;" parent="1" source="jCtlroWTBGwiwQgUSzyv-9" target="jCtlroWTBGwiwQgUSzyv-29" edge="1"><mxGeometry relative="1" as="geometry"><mxPoint x="-30" y="390" as="targetPoint"/><Array as="points"><mxPoint x="-105" y="310"/></Array></mxGeometry></mxCell><mxCell id="jCtlroWTBGwiwQgUSzyv-22" value="グズタ" style="edgeLabel;html=1;align=center;verticalAlign=middle;resizable=0;points=[];" parent="jCtlroWTBGwiwQgUSzyv-13" vertex="1" connectable="0"><mxGeometry x="-0.408" y="3" relative="1" as="geometry"><mxPoint as="offset"/></mxGeometry></mxCell><mxCell id="jCtlroWTBGwiwQgUSzyv-15" value="" style="edgeStyle=orthogonalEdgeStyle;rounded=0;orthogonalLoop=1;jettySize=auto;html=1;" parent="1" source="jCtlroWTBGwiwQgUSzyv-9" target="jCtlroWTBGwiwQgUSzyv-14" edge="1"><mxGeometry relative="1" as="geometry"><Array as="points"><mxPoint x="-530" y="400"/><mxPoint x="-620" y="400"/></Array></mxGeometry></mxCell><mxCell id="jCtlroWTBGwiwQgUSzyv-37" value="ピンキー" style="edgeLabel;html=1;align=center;verticalAlign=middle;resizable=0;points=[];" parent="jCtlroWTBGwiwQgUSzyv-15" vertex="1" connectable="0"><mxGeometry x="0.6429" y="3" relative="1" as="geometry"><mxPoint as="offset"/></mxGeometry></mxCell><mxCell id="jCtlroWTBGwiwQgUSzyv-17" value="" style="edgeStyle=orthogonalEdgeStyle;rounded=0;orthogonalLoop=1;jettySize=auto;html=1;exitX=0.5;exitY=1;exitDx=0;exitDy=0;exitPerimeter=0;" parent="1" source="jCtlroWTBGwiwQgUSzyv-9" edge="1"><mxGeometry relative="1" as="geometry"><mxPoint x="-492.4999999999998" y="360" as="sourcePoint"/><mxPoint x="-417.4999999999998" y="460" as="targetPoint"/><Array as="points"><mxPoint x="-530" y="400"/><mxPoint x="-417" y="400"/></Array></mxGeometry></mxCell><mxCell id="jCtlroWTBGwiwQgUSzyv-36" value="アオスケ" style="edgeLabel;html=1;align=center;verticalAlign=middle;resizable=0;points=[];" parent="jCtlroWTBGwiwQgUSzyv-17" vertex="1" connectable="0"><mxGeometry x="0.4267" y="2" relative="1" as="geometry"><mxPoint x="-52" y="2" as="offset"/></mxGeometry></mxCell><mxCell id="jCtlroWTBGwiwQgUSzyv-18" style="edgeStyle=orthogonalEdgeStyle;rounded=0;orthogonalLoop=1;jettySize=auto;html=1;exitX=0.5;exitY=1;exitDx=0;exitDy=0;exitPerimeter=0;" parent="1" source="jCtlroWTBGwiwQgUSzyv-9" edge="1"><mxGeometry relative="1" as="geometry"><mxPoint x="-280" y="460" as="targetPoint"/><Array as="points"><mxPoint x="-530" y="370"/><mxPoint x="-280" y="370"/><mxPoint x="-280" y="460"/></Array></mxGeometry></mxCell><mxCell id="jCtlroWTBGwiwQgUSzyv-28" value="アカベエ" style="edgeLabel;html=1;align=center;verticalAlign=middle;resizable=0;points=[];" parent="jCtlroWTBGwiwQgUSzyv-18" vertex="1" connectable="0"><mxGeometry x="0.4615" y="-2" relative="1" as="geometry"><mxPoint as="offset"/></mxGeometry></mxCell><mxCell id="jCtlroWTBGwiwQgUSzyv-9" value="挙動タイプは？" style="strokeWidth=2;html=1;shape=mxgraph.flowchart.decision;whiteSpace=wrap;" parent="1" vertex="1"><mxGeometry x="-590" y="260" width="120" height="100" as="geometry"/></mxCell><mxCell id="jCtlroWTBGwiwQgUSzyv-11" value="Yes" style="text;html=1;align=center;verticalAlign=middle;resizable=0;points=[];autosize=1;strokeColor=none;" parent="1" vertex="1"><mxGeometry x="-530" y="240" width="40" height="20" as="geometry"/></mxCell><mxCell id="jCtlroWTBGwiwQgUSzyv-71" style="edgeStyle=orthogonalEdgeStyle;rounded=0;orthogonalLoop=1;jettySize=auto;html=1;entryX=0.5;entryY=0;entryDx=0;entryDy=0;entryPerimeter=0;" parent="1" source="jCtlroWTBGwiwQgUSzyv-12" target="jCtlroWTBGwiwQgUSzyv-23" edge="1"><mxGeometry relative="1" as="geometry"><Array as="points"><mxPoint x="-150" y="1010"/><mxPoint x="-310" y="1010"/></Array></mxGeometry></mxCell><mxCell id="jCtlroWTBGwiwQgUSzyv-12" value="移動可能な方向をランダムに選ぶ" style="whiteSpace=wrap;html=1;strokeWidth=2;" parent="1" vertex="1"><mxGeometry x="-165" y="530" width="120" height="60" as="geometry"/></mxCell><mxCell id="jCtlroWTBGwiwQgUSzyv-43" value="" style="edgeStyle=orthogonalEdgeStyle;rounded=0;orthogonalLoop=1;jettySize=auto;html=1;" parent="1" source="jCtlroWTBGwiwQgUSzyv-14" target="jCtlroWTBGwiwQgUSzyv-42" edge="1"><mxGeometry relative="1" as="geometry"/></mxCell><mxCell id="jCtlroWTBGwiwQgUSzyv-14" value="パックマンの座標、向いている向きを取得" style="whiteSpace=wrap;html=1;strokeWidth=2;" parent="1" vertex="1"><mxGeometry x="-720" y="430" width="200" height="70" as="geometry"/></mxCell><mxCell id="jCtlroWTBGwiwQgUSzyv-39" value="" style="edgeStyle=orthogonalEdgeStyle;rounded=0;orthogonalLoop=1;jettySize=auto;html=1;" parent="1" source="jCtlroWTBGwiwQgUSzyv-16" target="jCtlroWTBGwiwQgUSzyv-38" edge="1"><mxGeometry relative="1" as="geometry"/></mxCell><mxCell id="jCtlroWTBGwiwQgUSzyv-16" value="アカベエの座標を取得" style="whiteSpace=wrap;html=1;strokeWidth=2;" parent="1" vertex="1"><mxGeometry x="-500" y="435" width="130" height="60" as="geometry"/></mxCell><mxCell id="jCtlroWTBGwiwQgUSzyv-23" value="終了" style="strokeWidth=2;html=1;shape=mxgraph.flowchart.start_1;whiteSpace=wrap;" parent="1" vertex="1"><mxGeometry x="-360" y="1080" width="100" height="60" as="geometry"/></mxCell><mxCell id="jCtlroWTBGwiwQgUSzyv-31" value="" style="edgeStyle=orthogonalEdgeStyle;rounded=0;orthogonalLoop=1;jettySize=auto;html=1;entryX=0.75;entryY=0;entryDx=0;entryDy=0;exitX=0;exitY=0.5;exitDx=0;exitDy=0;exitPerimeter=0;" parent="1" source="jCtlroWTBGwiwQgUSzyv-29" target="jCtlroWTBGwiwQgUSzyv-35" edge="1"><mxGeometry relative="1" as="geometry"><mxPoint x="-154.98000000000002" y="425.98" as="targetPoint"/><Array as="points"><mxPoint x="-190" y="470"/><mxPoint x="-198" y="470"/></Array></mxGeometry></mxCell><mxCell id="jCtlroWTBGwiwQgUSzyv-32" value="Yes" style="edgeLabel;html=1;align=center;verticalAlign=middle;resizable=0;points=[];" parent="jCtlroWTBGwiwQgUSzyv-31" vertex="1" connectable="0"><mxGeometry x="-0.1616" y="-2" relative="1" as="geometry"><mxPoint as="offset"/></mxGeometry></mxCell><mxCell id="jCtlroWTBGwiwQgUSzyv-33" value="No" style="edgeStyle=orthogonalEdgeStyle;rounded=0;orthogonalLoop=1;jettySize=auto;html=1;entryX=0.5;entryY=0;entryDx=0;entryDy=0;" parent="1" source="jCtlroWTBGwiwQgUSzyv-29" target="jCtlroWTBGwiwQgUSzyv-12" edge="1"><mxGeometry relative="1" as="geometry"/></mxCell><mxCell id="jCtlroWTBGwiwQgUSzyv-29" value="パックマンと離れすぎている？" style="strokeWidth=2;html=1;shape=mxgraph.flowchart.decision;whiteSpace=wrap;" parent="1" vertex="1"><mxGeometry x="-200" y="360" width="190" height="80" as="geometry"/></mxCell><mxCell id="jCtlroWTBGwiwQgUSzyv-49" style="edgeStyle=orthogonalEdgeStyle;rounded=0;orthogonalLoop=1;jettySize=auto;html=1;entryX=0.5;entryY=0;entryDx=0;entryDy=0;entryPerimeter=0;" parent="1" source="jCtlroWTBGwiwQgUSzyv-35" target="jCtlroWTBGwiwQgUSzyv-48" edge="1"><mxGeometry relative="1" as="geometry"><Array as="points"><mxPoint x="-190" y="710"/><mxPoint x="-737" y="710"/><mxPoint x="-737" y="730"/></Array></mxGeometry></mxCell><mxCell id="jCtlroWTBGwiwQgUSzyv-35" value="パックマンの座標と自分の座標の差を求める" style="whiteSpace=wrap;html=1;strokeWidth=2;" parent="1" vertex="1"><mxGeometry x="-287.5" y="460" width="120" height="60" as="geometry"/></mxCell><mxCell id="jCtlroWTBGwiwQgUSzyv-41" value="" style="edgeStyle=orthogonalEdgeStyle;rounded=0;orthogonalLoop=1;jettySize=auto;html=1;" parent="1" source="jCtlroWTBGwiwQgUSzyv-38" target="jCtlroWTBGwiwQgUSzyv-40" edge="1"><mxGeometry relative="1" as="geometry"/></mxCell><mxCell id="jCtlroWTBGwiwQgUSzyv-38" value="アカベエの座標に-1を掛け、逆にする" style="whiteSpace=wrap;html=1;strokeWidth=2;" parent="1" vertex="1"><mxGeometry x="-500" y="530" width="130" height="60" as="geometry"/></mxCell><mxCell id="jCtlroWTBGwiwQgUSzyv-47" value="" style="edgeStyle=orthogonalEdgeStyle;rounded=0;orthogonalLoop=1;jettySize=auto;html=1;entryX=0.5;entryY=0;entryDx=0;entryDy=0;entryPerimeter=0;" parent="1" source="jCtlroWTBGwiwQgUSzyv-40" target="jCtlroWTBGwiwQgUSzyv-48" edge="1"><mxGeometry relative="1" as="geometry"><mxPoint x="-335" y="790" as="targetPoint"/><Array as="points"><mxPoint x="-435" y="710"/><mxPoint x="-737" y="710"/><mxPoint x="-737" y="730"/></Array></mxGeometry></mxCell><mxCell id="jCtlroWTBGwiwQgUSzyv-40" value="その座標と自分の座標の差を求める" style="whiteSpace=wrap;html=1;strokeWidth=2;" parent="1" vertex="1"><mxGeometry x="-500" y="620" width="130" height="60" as="geometry"/></mxCell><mxCell id="jCtlroWTBGwiwQgUSzyv-45" value="" style="edgeStyle=orthogonalEdgeStyle;rounded=0;orthogonalLoop=1;jettySize=auto;html=1;" parent="1" source="jCtlroWTBGwiwQgUSzyv-42" target="jCtlroWTBGwiwQgUSzyv-44" edge="1"><mxGeometry relative="1" as="geometry"/></mxCell><mxCell id="jCtlroWTBGwiwQgUSzyv-42" value="パックマンの座標から向いている向きに3マス進んだ場所の座標を取得" style="whiteSpace=wrap;html=1;strokeWidth=2;" parent="1" vertex="1"><mxGeometry x="-695" y="530" width="150" height="60" as="geometry"/></mxCell><mxCell id="jCtlroWTBGwiwQgUSzyv-50" style="edgeStyle=orthogonalEdgeStyle;rounded=0;orthogonalLoop=1;jettySize=auto;html=1;entryX=0.5;entryY=0;entryDx=0;entryDy=0;entryPerimeter=0;" parent="1" source="jCtlroWTBGwiwQgUSzyv-44" target="jCtlroWTBGwiwQgUSzyv-48" edge="1"><mxGeometry relative="1" as="geometry"><Array as="points"><mxPoint x="-620" y="710"/><mxPoint x="-737" y="710"/><mxPoint x="-737" y="720"/><mxPoint x="-737" y="720"/></Array></mxGeometry></mxCell><mxCell id="jCtlroWTBGwiwQgUSzyv-44" value="その座標と自分の座標の差を求める" style="whiteSpace=wrap;html=1;strokeWidth=2;" parent="1" vertex="1"><mxGeometry x="-680" y="620" width="120" height="60" as="geometry"/></mxCell><mxCell id="jCtlroWTBGwiwQgUSzyv-56" value="Yes" style="edgeStyle=orthogonalEdgeStyle;rounded=0;orthogonalLoop=1;jettySize=auto;html=1;exitX=1;exitY=0.5;exitDx=0;exitDy=0;exitPerimeter=0;" parent="1" source="jCtlroWTBGwiwQgUSzyv-48" target="jCtlroWTBGwiwQgUSzyv-55" edge="1"><mxGeometry x="0.1111" relative="1" as="geometry"><Array as="points"><mxPoint x="-610" y="780"/><mxPoint x="-610" y="780"/></Array><mxPoint as="offset"/></mxGeometry></mxCell><mxCell id="jCtlroWTBGwiwQgUSzyv-58" value="No" style="edgeStyle=orthogonalEdgeStyle;rounded=0;orthogonalLoop=1;jettySize=auto;html=1;" parent="1" source="jCtlroWTBGwiwQgUSzyv-48" target="jCtlroWTBGwiwQgUSzyv-57" edge="1"><mxGeometry relative="1" as="geometry"/></mxCell><mxCell id="jCtlroWTBGwiwQgUSzyv-48" value="差のX軸が負の値？" style="strokeWidth=2;html=1;shape=mxgraph.flowchart.decision;whiteSpace=wrap;" parent="1" vertex="1"><mxGeometry x="-815" y="730" width="155" height="100" as="geometry"/></mxCell><mxCell id="jCtlroWTBGwiwQgUSzyv-52" value="その座標と自分の座標の差を求める" style="whiteSpace=wrap;html=1;strokeWidth=2;" parent="1" vertex="1"><mxGeometry x="-820" y="360" width="120" height="60" as="geometry"/></mxCell><mxCell id="jCtlroWTBGwiwQgUSzyv-60" style="edgeStyle=orthogonalEdgeStyle;rounded=0;orthogonalLoop=1;jettySize=auto;html=1;entryX=0.5;entryY=0;entryDx=0;entryDy=0;entryPerimeter=0;" parent="1" source="jCtlroWTBGwiwQgUSzyv-55" target="jCtlroWTBGwiwQgUSzyv-59" edge="1"><mxGeometry relative="1" as="geometry"/></mxCell><mxCell id="jCtlroWTBGwiwQgUSzyv-55" value="左を返す" style="whiteSpace=wrap;html=1;strokeWidth=2;" parent="1" vertex="1"><mxGeometry x="-570" y="760" width="120" height="60" as="geometry"/></mxCell><mxCell id="jCtlroWTBGwiwQgUSzyv-61" style="edgeStyle=orthogonalEdgeStyle;rounded=0;orthogonalLoop=1;jettySize=auto;html=1;entryX=0;entryY=0.5;entryDx=0;entryDy=0;entryPerimeter=0;" parent="1" source="jCtlroWTBGwiwQgUSzyv-57" target="jCtlroWTBGwiwQgUSzyv-59" edge="1"><mxGeometry relative="1" as="geometry"/></mxCell><mxCell id="jCtlroWTBGwiwQgUSzyv-57" value="右を返す" style="whiteSpace=wrap;html=1;strokeWidth=2;" parent="1" vertex="1"><mxGeometry x="-797.5" y="850" width="120" height="60" as="geometry"/></mxCell><mxCell id="jCtlroWTBGwiwQgUSzyv-62" value="Yes" style="edgeStyle=orthogonalEdgeStyle;rounded=0;orthogonalLoop=1;jettySize=auto;html=1;entryX=0.5;entryY=0;entryDx=0;entryDy=0;entryPerimeter=0;exitX=1;exitY=0.5;exitDx=0;exitDy=0;exitPerimeter=0;" parent="1" source="jCtlroWTBGwiwQgUSzyv-59" target="jCtlroWTBGwiwQgUSzyv-23" edge="1"><mxGeometry x="-0.4848" relative="1" as="geometry"><mxPoint x="100" y="1200" as="targetPoint"/><Array as="points"><mxPoint x="-150" y="880"/><mxPoint x="-150" y="1010"/><mxPoint x="-310" y="1010"/></Array><mxPoint as="offset"/></mxGeometry></mxCell><mxCell id="jCtlroWTBGwiwQgUSzyv-64" value="No" style="edgeStyle=orthogonalEdgeStyle;rounded=0;orthogonalLoop=1;jettySize=auto;html=1;entryX=0.5;entryY=0;entryDx=0;entryDy=0;entryPerimeter=0;exitX=0.5;exitY=1;exitDx=0;exitDy=0;exitPerimeter=0;" parent="1" source="jCtlroWTBGwiwQgUSzyv-59" target="jCtlroWTBGwiwQgUSzyv-63" edge="1"><mxGeometry relative="1" as="geometry"><Array as="points"><mxPoint x="-732" y="950"/></Array></mxGeometry></mxCell><mxCell id="jCtlroWTBGwiwQgUSzyv-59" value="移動できる？" style="strokeWidth=2;html=1;shape=mxgraph.flowchart.decision;whiteSpace=wrap;" parent="1" vertex="1"><mxGeometry x="-560" y="830" width="100" height="100" as="geometry"/></mxCell><mxCell id="jCtlroWTBGwiwQgUSzyv-66" value="Yes" style="edgeStyle=orthogonalEdgeStyle;rounded=0;orthogonalLoop=1;jettySize=auto;html=1;exitX=1;exitY=0.5;exitDx=0;exitDy=0;exitPerimeter=0;" parent="1" source="jCtlroWTBGwiwQgUSzyv-63" target="jCtlroWTBGwiwQgUSzyv-65" edge="1"><mxGeometry relative="1" as="geometry"><Array as="points"><mxPoint x="-580" y="1000"/><mxPoint x="-580" y="1000"/></Array></mxGeometry></mxCell><mxCell id="jCtlroWTBGwiwQgUSzyv-68" value="No" style="edgeStyle=orthogonalEdgeStyle;rounded=0;orthogonalLoop=1;jettySize=auto;html=1;" parent="1" source="jCtlroWTBGwiwQgUSzyv-63" target="jCtlroWTBGwiwQgUSzyv-67" edge="1"><mxGeometry relative="1" as="geometry"/></mxCell><mxCell id="jCtlroWTBGwiwQgUSzyv-63" value="差のY軸が負の値？" style="strokeWidth=2;html=1;shape=mxgraph.flowchart.decision;whiteSpace=wrap;" parent="1" vertex="1"><mxGeometry x="-810" y="950" width="155" height="100" as="geometry"/></mxCell><mxCell id="jCtlroWTBGwiwQgUSzyv-70" style="edgeStyle=orthogonalEdgeStyle;rounded=0;orthogonalLoop=1;jettySize=auto;html=1;entryX=0.5;entryY=0;entryDx=0;entryDy=0;entryPerimeter=0;" parent="1" source="jCtlroWTBGwiwQgUSzyv-65" target="jCtlroWTBGwiwQgUSzyv-23" edge="1"><mxGeometry relative="1" as="geometry"/></mxCell><mxCell id="jCtlroWTBGwiwQgUSzyv-65" value="下を返す" style="whiteSpace=wrap;html=1;strokeWidth=2;" parent="1" vertex="1"><mxGeometry x="-550" y="980" width="120" height="60" as="geometry"/></mxCell><mxCell id="2" style="edgeStyle=orthogonalEdgeStyle;rounded=0;orthogonalLoop=1;jettySize=auto;html=1;entryX=0;entryY=0.5;entryDx=0;entryDy=0;entryPerimeter=0;" edge="1" parent="1" source="jCtlroWTBGwiwQgUSzyv-67" target="jCtlroWTBGwiwQgUSzyv-23"><mxGeometry relative="1" as="geometry"><Array as="points"><mxPoint x="-590" y="1110"/><mxPoint x="-590" y="1110"/></Array></mxGeometry></mxCell><mxCell id="jCtlroWTBGwiwQgUSzyv-67" value="上を返す" style="whiteSpace=wrap;html=1;strokeWidth=2;" parent="1" vertex="1"><mxGeometry x="-792.5" y="1090" width="120" height="60" as="geometry"/></mxCell></root></mxGraphModel></diagram></mxfile>